<?xml version="1.0" standalone="no"?>
<!DOCTYPE svg PUBLIC "-//W3C//DTD SVG 20010904//EN"
 "http://www.w3.org/TR/2001/REC-SVG-20010904/DTD/svg10.dtd">
<svg version="1.0" xmlns="http://www.w3.org/2000/svg"
 width="256.000000pt" height="256.000000pt" viewBox="0 0 256.000000 256.000000"
 preserveAspectRatio="xMidYMid meet">
<metadata>
Created by potrace 1.11, written by Peter Selinger 2001-2013
</metadata>
<g transform="translate(0.000000,256.000000) scale(0.100000,-0.100000)"
fill="#000000" stroke="none">
<path d="M737 2554 c-1 -1 -23 -4 -48 -7 -259 -31 -503 -222 -605 -475 -73
-181 -70 -402 7 -587 57 -138 183 -286 301 -354 28 -16 44 -31 39 -37 -14 -15
-58 -164 -66 -224 -21 -153 4 -300 77 -450 44 -92 61 -115 142 -195 106 -105
172 -147 303 -190 84 -28 108 -32 222 -34 149 -3 225 12 336 63 236 109 393
308 439 556 l12 65 80 20 c458 115 705 606 524 1044 -116 283 -395 470 -703
472 -100 1 -144 -8 -307 -57 -10 -3 -25 12 -43 40 -109 174 -329 317 -524 342
-57 7 -181 13 -186 8z m171 -98 c116 -17 251 -82 345 -166 47 -42 137 -153
137 -169 0 -4 -21 -23 -46 -41 -74 -53 -158 -143 -207 -222 -46 -74 -103 -224
-109 -288 -3 -35 -3 -35 -86 -57 -160 -43 -275 -114 -386 -235 -36 -40 -66
-76 -66 -80 0 -17 -25 -6 -85 37 -117 83 -202 199 -252 344 -24 67 -27 92 -27
206 0 115 3 139 26 206 89 253 307 436 557 466 25 3 47 6 48 7 5 4 100 -1 151
-8z m1048 -347 c40 -9 98 -31 131 -47 64 -33 167 -107 198 -144 87 -101 131
-183 165 -304 26 -95 22 -271 -10 -364 -52 -154 -144 -276 -279 -367 -56 -37
-170 -86 -228 -96 -30 -6 -33 -4 -33 18 0 14 0 26 -1 28 0 1 -6 34 -14 73 -40
208 -155 382 -336 504 l-57 40 19 40 c38 78 53 160 54 285 0 126 -7 178 -31
246 -7 23 -14 45 -14 50 0 7 89 37 155 53 49 11 214 3 281 -15z m-491 -188
c26 -126 12 -280 -37 -393 l-20 -46 -32 13 c-49 21 -150 38 -223 39 -38 1 -41
12 -19 93 39 145 136 286 256 372 l44 32 9 -23 c4 -13 14 -52 22 -87z m-195
-492 c96 -19 97 -22 48 -81 -39 -47 -144 -138 -159 -138 -17 0 -58 208 -45
228 7 11 75 7 156 -9z m-245 -69 c4 -36 17 -95 29 -132 l22 -67 -65 -20 c-129
-41 -236 -45 -368 -16 -40 9 -73 21 -73 27 0 24 167 174 230 207 71 38 201 82
212 72 3 -3 9 -35 13 -71z m491 -40 c161 -108 263 -282 289 -495 l8 -57 -64 6
c-97 8 -128 15 -204 45 -123 47 -246 145 -316 250 -16 25 -29 47 -29 50 0 3
17 17 37 31 56 38 146 124 178 169 15 23 31 41 35 41 4 0 34 -18 66 -40z
m-368 -293 c121 -191 338 -319 577 -342 39 -4 72 -9 74 -11 10 -10 -24 -127
-59 -199 -49 -102 -116 -184 -205 -252 -70 -53 -181 -106 -246 -118 -96 -18
-131 -21 -193 -19 -259 12 -499 183 -598 428 -39 94 -43 122 -42 261 0 102 5
132 28 203 28 85 33 90 81 72 55 -21 170 -37 251 -35 93 3 147 12 224 39 36
13 67 24 70 24 3 1 20 -22 38 -51z"/>
</g>
</svg>
